<svg width="24" height="24" viewBox="0 0 24 24" fill="none" xmlns="http://www.w3.org/2000/svg">
<path d="M22.3201 9.83972C20.1121 10.7037 20.5201 15.96 15.2401 20.6397L16.2001 17.4C15.3601 18.36 14.6401 18.768 12.2401 19.44C20.8801 14.448 16.7201 12 13.5601 11.4C14.6401 10.08 17.4001 12.8402 18.2401 12.2399C20.5201 9.60024 22.9201 9.36 22.3201 9.83972Z" fill="#028F58"/>
<circle cx="17.6401" cy="9.36" r="1.68" fill="#028F58"/>
<path d="M1.68005 2.88C4.56005 3.456 5.92005 7.52 6.24005 9.48C10.4401 8.04 13.4401 10.792 12.1201 10.44C6.72005 9 5.76005 12.12 5.88005 14.28C6.00005 16.44 6.24005 15.84 10.3201 21.12C7.44005 20.28 6.72005 18.24 5.52005 17.04V21.12C4.44005 19.68 5.04005 15.48 4.68005 14.88C4.32005 14.28 3.96005 11.64 4.20005 8.88C4.44005 6.12 2.40005 4.44 1.68005 2.88Z" fill="#028F58"/>
<circle cx="8.16011" cy="6.12" r="1.8" fill="#028F58"/>
<path fill-rule="evenodd" clip-rule="evenodd" d="M12.72 12H10.32V14.04H8.28003V16.44H10.32V18.48H12.72V16.44H14.76V14.04H12.72V12Z" fill="#028F58"/>
</svg>
